<?xml version="1.0" encoding="UTF-8" standalone="no" ?>
<!DOCTYPE svg PUBLIC "-//W3C//DTD SVG 1.1//EN" "http://www.w3.org/Graphics/SVG/1.1/DTD/svg11.dtd">
<svg xmlns="http://www.w3.org/2000/svg" xmlns:xlink="http://www.w3.org/1999/xlink" version="1.1" width="1080" height="1080" viewBox="0 0 1080 1080" xml:space="preserve">
<desc>Created with Fabric.js 5.2.4</desc>
<defs>
</defs>
<g transform="matrix(1 0 0 1 540 540)" id="f13f79f4-22c9-4bc4-b37a-158b2f1c3021"  >
</g>
<g transform="matrix(1 0 0 1 540 540)" id="f56fa61e-21d4-448b-bc0a-9990f2347348"  >
<rect style="stroke: none; stroke-width: 1; stroke-dasharray: none; stroke-linecap: butt; stroke-dashoffset: 0; stroke-linejoin: miter; stroke-miterlimit: 4; fill: rgb(255,255,255); fill-rule: nonzero; opacity: 1; visibility: hidden;" vector-effect="non-scaling-stroke"  x="-540" y="-540" rx="0" ry="0" width="1080" height="1080" />
</g>
<g transform="matrix(0 -23.72 28.51 0 540.01 539.99)"  >
<path style="stroke: rgb(0,0,0); stroke-width: 0; stroke-dasharray: none; stroke-linecap: butt; stroke-dashoffset: 0; stroke-linejoin: miter; stroke-miterlimit: 4; fill: rgb(255,255,255); fill-rule: nonzero; opacity: 1;" vector-effect="non-scaling-stroke"  transform=" translate(-25, -25)" d="M 32.984375 9.9863281 C 32.93593040707081 9.987378037489457 32.88762617400554 9.991947373092511 32.839844 10 L 19 10 C 15.436673 10 13.430177 10.82622 11.539062 11.570312 C 9.6479504 12.314407 7.8321895 13 4 13 C 3.4477381237915408 13.00005521790535 3.000055217905349 13.447738123791542 3 14 L 3 36 C 3.000055217905349 36.55226187620846 3.4477381237915408 36.99994478209465 4 37 C 7.875 37 9.6907546 37.686141 11.570312 38.429688 C 13.449872 39.173233 15.437151 40 19 40 L 32.832031 40 C 32.940022437464606 40.017849048052845 33.050211562535395 40.017849048052845 33.158203 40 L 46 40 C 46.55226187620846 39.99994478209465 46.99994478209465 39.55226187620846 47 39 L 47 11 C 46.99994478209465 10.447738123791542 46.55226187620846 10.000055217905349 46 10 L 33.154297 10 C 33.098148676154736 9.9906148913271 33.041301550021295 9.98604097962771 32.984375 9.9863281 z M 19 12 L 32 12 L 32 16 L 27 16 C 26.44773812379154 16.00005521790535 26.00005521790535 16.44773812379154 26 17 L 26 21 L 11 21 C 10.447738123791542 21.00005521790535 10.000055217905349 21.44773812379154 10 22 L 10 28 C 10.000055217905349 28.55226187620846 10.447738123791542 28.99994478209465 11 29 L 26 29 L 26 33 C 26.00005521790535 33.55226187620846 26.44773812379154 33.99994478209465 27 34 L 32 34 L 32 38 L 19 38 C 15.729849 38 14.216877 37.326767 12.304688 36.570312 C 10.584404 35.889776 8.3893292 35.2406 5 35.101562 L 5 14.898438 C 8.3550711 14.758611 10.544511 14.109196 12.271484 13.429688 C 14.192621 12.67378 15.729327 12 19 12 z M 34 12 L 45 12 L 45 16 L 38 16 C 37.63936408342243 15.994899710454515 37.303918635428396 16.184375296169332 37.122112278513484 16.49587284971433 C 36.94030592159857 16.80737040325933 36.94030592159857 17.192629596740673 37.122112278513484 17.50412715028567 C 37.303918635428396 17.815624703830668 37.63936408342243 18.005100289545485 38 18 L 45 18 L 45 20 L 38 20 C 37.63936408342243 19.994899710454515 37.303918635428396 20.184375296169332 37.122112278513484 20.49587284971433 C 36.94030592159857 20.80737040325933 36.94030592159857 21.192629596740673 37.122112278513484 21.50412715028567 C 37.303918635428396 21.815624703830668 37.63936408342243 22.005100289545485 38 22 L 45 22 L 45 24 L 38 24 C 37.63936408342243 23.994899710454515 37.303918635428396 24.184375296169332 37.122112278513484 24.49587284971433 C 36.94030592159857 24.80737040325933 36.94030592159857 25.192629596740673 37.122112278513484 25.50412715028567 C 37.303918635428396 25.815624703830668 37.63936408342243 26.005100289545485 38 26 L 45 26 L 45 28 L 38 28 C 37.63936408342243 27.994899710454515 37.303918635428396 28.184375296169332 37.122112278513484 28.49587284971433 C 36.94030592159857 28.80737040325933 36.94030592159857 29.192629596740673 37.122112278513484 29.50412715028567 C 37.303918635428396 29.815624703830668 37.63936408342243 30.005100289545485 38 30 L 45 30 L 45 32 L 38 32 C 37.63936408342243 31.994899710454515 37.303918635428396 32.184375296169335 37.122112278513484 32.49587284971433 C 36.94030592159857 32.80737040325933 36.94030592159857 33.19262959674067 37.122112278513484 33.50412715028567 C 37.303918635428396 33.81562470383067 37.63936408342243 34.00510028954548 38 34 L 45 34 L 45 38 L 34 38 L 34 33 C 33.99994478209465 32.44773812379154 33.55226187620846 32.00005521790535 33 32 L 28 32 L 28 28 C 27.99994478209465 27.44773812379154 27.55226187620846 27.00005521790535 27 27 L 12 27 L 12 23 L 27 23 C 27.55226187620846 22.99994478209465 27.99994478209465 22.55226187620846 28 22 L 28 18 L 33 18 C 33.55226187620846 17.99994478209465 33.99994478209465 17.55226187620846 34 17 L 34 12 z" stroke-linecap="round" />
</g>
</svg>