<?xml version="1.0" encoding="UTF-8" standalone="no" ?>
<!DOCTYPE svg PUBLIC "-//W3C//DTD SVG 1.1//EN" "http://www.w3.org/Graphics/SVG/1.1/DTD/svg11.dtd">
<svg xmlns="http://www.w3.org/2000/svg" xmlns:xlink="http://www.w3.org/1999/xlink" version="1.1" width="1080" height="1080" viewBox="0 0 1080 1080" xml:space="preserve">
<desc>Created with Fabric.js 5.2.4</desc>
<defs>
</defs>
<rect x="0" y="0" width="100%" height="100%" fill="transparent"></rect>
<g transform="matrix(1 0 0 1 540 540)" id="7a07839d-53ac-4464-a6f0-2143f85b1de5"  >
<rect style="stroke: none; stroke-width: 1; stroke-dasharray: none; stroke-linecap: butt; stroke-dashoffset: 0; stroke-linejoin: miter; stroke-miterlimit: 4; fill: rgb(255,255,255); fill-rule: nonzero; opacity: 1; visibility: hidden;" vector-effect="non-scaling-stroke"  x="-540" y="-540" rx="0" ry="0" width="1080" height="1080" />
</g>
<g transform="matrix(1 0 0 1 540 540)" id="058ad22f-11e3-4c89-8f9f-1a83e5033459"  >
</g>
<g transform="matrix(4.24 0 0 4.24 540 540)"  >
<g style="" vector-effect="non-scaling-stroke"   >
		<g transform="matrix(2.81 0 0 2.81 0 -33.58)"  >
<path style="stroke: none; stroke-width: 1; stroke-dasharray: none; stroke-linecap: butt; stroke-dashoffset: 0; stroke-linejoin: miter; stroke-miterlimit: 10; fill: rgb(255,255,255); fill-rule: nonzero; opacity: 1;" vector-effect="non-scaling-stroke"  transform=" translate(-45, -33.05)" d="M 45 49.519 L 45 49.519 C 37.32 49.519 31.036 43.235 31.036 35.555 L 31.036 30.547 C 31.036 22.867 37.32 16.583 45 16.583 L 45 16.583 C 52.68 16.583 58.964 22.866999999999997 58.964 30.546999999999997 L 58.964 35.555 C 58.964 43.236 52.68 49.519 45 49.519 z" stroke-linecap="round" />
</g>
		<g transform="matrix(2.81 0 0 2.81 0 72.27)"  >
<path style="stroke: none; stroke-width: 1; stroke-dasharray: none; stroke-linecap: butt; stroke-dashoffset: 0; stroke-linejoin: miter; stroke-miterlimit: 10; fill: rgb(255,255,255); fill-rule: nonzero; opacity: 1;" vector-effect="non-scaling-stroke"  transform=" translate(-45, -70.72)" d="M 52.863 51.438 C 50.501 52.661 47.831 53.365 45 53.365 C 42.169 53.365 39.499 52.661 37.137 51.438 C 26.58 53.014 18.414 62.175 18.414 73.152 L 18.414 87.596 C 18.414 88.918 19.496000000000002 89.99900000000001 20.817 89.99900000000001 L 69.181 89.99900000000001 C 70.503 89.99900000000001 71.584 88.91700000000002 71.584 87.596 L 71.584 73.152 C 71.586 62.175 63.42 53.014 52.863 51.438 z" stroke-linecap="round" />
</g>
		<g transform="matrix(2.81 0 0 2.81 82.06 25.67)"  >
<path style="stroke: none; stroke-width: 1; stroke-dasharray: none; stroke-linecap: butt; stroke-dashoffset: 0; stroke-linejoin: miter; stroke-miterlimit: 10; fill: rgb(255,255,255); fill-rule: nonzero; opacity: 1;" vector-effect="non-scaling-stroke"  transform=" translate(-74.2, -54.13)" d="M 71.277 34.854 C 68.915 36.077 66.245 36.781 63.414 36.781 C 63.410000000000004 36.781 63.407000000000004 36.781 63.403 36.781 C 63.109 41.193 61.269 45.182 58.408 48.211 C 68.763 51.891999999999996 76.086 61.86 76.086 73.152 L 76.086 73.415 L 87.597 73.415 C 88.919 73.415 90.00099999999999 72.33300000000001 90.00099999999999 71.01100000000001 L 90.00099999999999 56.568 C 90 45.59 81.834 36.429 71.277 34.854 z" stroke-linecap="round" />
</g>
		<g transform="matrix(2.81 0 0 2.81 51.83 -80.18)"  >
<path style="stroke: none; stroke-width: 1; stroke-dasharray: none; stroke-linecap: butt; stroke-dashoffset: 0; stroke-linejoin: miter; stroke-miterlimit: 10; fill: rgb(255,255,255); fill-rule: nonzero; opacity: 1;" vector-effect="non-scaling-stroke"  transform=" translate(-63.45, -16.47)" d="M 63.414 0 C 56.172000000000004 0 50.177 5.589 49.516000000000005 12.667 C 57.516000000000005 14.69 63.46300000000001 21.927999999999997 63.46300000000001 30.548000000000002 L 63.46300000000001 32.933 C 71.12 32.906 77.37700000000001 26.634999999999998 77.37700000000001 18.972 L 77.37700000000001 13.964000000000002 C 77.378 6.284 71.094 0 63.414 0 z" stroke-linecap="round" />
</g>
		<g transform="matrix(2.81 0 0 2.81 -82.06 25.67)"  >
<path style="stroke: none; stroke-width: 1; stroke-dasharray: none; stroke-linecap: butt; stroke-dashoffset: 0; stroke-linejoin: miter; stroke-miterlimit: 10; fill: rgb(255,255,255); fill-rule: nonzero; opacity: 1;" vector-effect="non-scaling-stroke"  transform=" translate(-15.8, -54.13)" d="M 13.915 73.152 C 13.915 61.86 21.237 51.891000000000005 31.592 48.211 C 28.730999999999998 45.182 26.89 41.192 26.596999999999998 36.781 C 26.592999999999996 36.781 26.589999999999996 36.781 26.586 36.781 C 23.755 36.781 21.086 36.077 18.723 34.854 C 8.166 36.429 0 45.59 0 56.568 L 0 71.012 C 0 72.334 1.082 73.416 2.404 73.416 L 13.915 73.416 L 13.915 73.152 z" stroke-linecap="round" />
</g>
		<g transform="matrix(2.81 0 0 2.81 -51.84 -80.18)"  >
<path style="stroke: none; stroke-width: 1; stroke-dasharray: none; stroke-linecap: butt; stroke-dashoffset: 0; stroke-linejoin: miter; stroke-miterlimit: 10; fill: rgb(255,255,255); fill-rule: nonzero; opacity: 1;" vector-effect="non-scaling-stroke"  transform=" translate(-26.55, -16.47)" d="M 26.536 32.932 L 26.536 30.547000000000004 C 26.536 21.927000000000007 32.482 14.689000000000004 40.483000000000004 12.666000000000004 C 39.823 5.589 33.828 0 26.586 0 C 18.906 0 12.621999999999998 6.284 12.621999999999998 13.964 L 12.621999999999998 18.972 C 12.622 26.635 18.879 32.905 26.536 32.932 z" stroke-linecap="round" />
</g>
</g>
</g>
</svg>