<?xml version="1.0" encoding="UTF-8" standalone="no" ?>
<!DOCTYPE svg PUBLIC "-//W3C//DTD SVG 1.1//EN" "http://www.w3.org/Graphics/SVG/1.1/DTD/svg11.dtd">
<svg xmlns="http://www.w3.org/2000/svg" xmlns:xlink="http://www.w3.org/1999/xlink" version="1.1" width="1080" height="1080" viewBox="0 0 1080 1080" xml:space="preserve">
<desc>Created with Fabric.js 5.2.4</desc>
<defs>
</defs>
<g transform="matrix(1 0 0 1 540 540)" id="7a07839d-53ac-4464-a6f0-2143f85b1de5"  >
<rect style="stroke: none; stroke-width: 1; stroke-dasharray: none; stroke-linecap: butt; stroke-dashoffset: 0; stroke-linejoin: miter; stroke-miterlimit: 4; fill: rgb(255,255,255); fill-rule: nonzero; opacity: 1; visibility: hidden;" vector-effect="non-scaling-stroke"  x="-540" y="-540" rx="0" ry="0" width="1080" height="1080" />
</g>
<g transform="matrix(1 0 0 1 540 540)" id="058ad22f-11e3-4c89-8f9f-1a83e5033459"  >
</g>
<g transform="matrix(1.26 0 0 1.26 540 540)"  >
<g style="" vector-effect="non-scaling-stroke"   >
		<g transform="matrix(1.68 0 0 1.68 -0.01 -135.37)"  >
<path style="stroke: none; stroke-width: 1; stroke-dasharray: none; stroke-linecap: butt; stroke-dashoffset: 0; stroke-linejoin: miter; stroke-miterlimit: 4; fill: rgb(255,255,255); fill-rule: nonzero; opacity: 1;" vector-effect="non-scaling-stroke"  transform=" translate(-237.92, -157.41)" d="M 151.549 145.274 C 151.549 168.664 160.69400000000002 195.659 176.011 217.488 C 193.4 242.268 215.387 255.915 237.922 255.915 C 260.456 255.915 282.443 242.268 299.832 217.487 C 315.149 195.659 324.294 168.663 324.294 145.274 C 324.294 97.648 285.548 58.902 237.92199999999997 58.902 C 190.296 58.902 151.549 97.648 151.549 145.274 z M 237.922 73.902 C 277.276 73.902 309.294 105.92 309.294 145.274 C 309.294 165.392 300.964 189.761 287.554 208.872 C 273.26399999999995 229.23600000000002 255.17399999999998 240.91500000000002 237.92199999999997 240.91500000000002 C 220.66999999999996 240.91500000000002 202.57999999999998 229.23600000000002 188.28999999999996 208.872 C 174.87999999999997 189.762 166.54899999999998 165.39300000000003 166.54899999999998 145.274 C 166.549 105.919 198.567 73.902 237.922 73.902 z" stroke-linecap="round" />
</g>
		<g transform="matrix(1.68 0 0 1.68 -0.02 168.09)"  >
<path style="stroke: none; stroke-width: 1; stroke-dasharray: none; stroke-linecap: butt; stroke-dashoffset: 0; stroke-linejoin: miter; stroke-miterlimit: 4; fill: rgb(255,255,255); fill-rule: nonzero; opacity: 1;" vector-effect="non-scaling-stroke"  transform=" translate(-237.92, -337.91)" d="M 302.372 239.167 C 299.51 237.804 296.099 238.389 293.85200000000003 240.62800000000001 C 277.07700000000006 257.356 257.735 266.197 237.91700000000003 266.197 C 218.09600000000003 266.197 198.75900000000001 257.356 181.99400000000003 240.63 C 179.74800000000002 238.38899999999998 176.33500000000004 237.804 173.473 239.167 C 148.21900000000002 251.189 126.84500000000001 269.996 111.662 293.555 C 96.066 317.755 87.822 345.832 87.822 374.75 L 87.822 374.871 C 87.822 376.98699999999997 88.71600000000001 379.005 90.283 380.42699999999996 C 130.775 417.14899999999994 183.20499999999998 437.37199999999996 237.916 437.37199999999996 C 292.627 437.37199999999996 345.057 417.14799999999997 385.548 380.42699999999996 C 387.116 379.00499999999994 388.01 376.98799999999994 388.01 374.871 L 388.01 374.75 C 388.01 345.832 379.768 317.755 364.176 293.556 C 348.997 269.995 327.625 251.188 302.372 239.167 z M 237.918 422.372 C 188.05700000000002 422.372 140.233 404.349 102.86100000000002 371.545 C 103.44400000000002 346.649 110.81700000000002 322.559 124.27200000000002 301.68 C 137.01300000000003 281.91 154.59400000000002 265.857 175.33 255.00400000000002 C 194.07600000000002 272.161 215.615 281.197 237.918 281.197 C 260.218 281.197 281.76 272.162 300.516 255.004 C 321.25 265.85699999999997 338.829 281.90999999999997 351.569 301.68 C 365.021 322.557 372.392 346.648 372.975 371.545 C 335.602 404.349 287.778 422.372 237.918 422.372 z" stroke-linecap="round" />
</g>
		<g transform="matrix(1.68 0 0 1.68 258.32 68.63)"  >
<path style="stroke: none; stroke-width: 1; stroke-dasharray: none; stroke-linecap: butt; stroke-dashoffset: 0; stroke-linejoin: miter; stroke-miterlimit: 4; fill: rgb(255,255,255); fill-rule: nonzero; opacity: 1;" vector-effect="non-scaling-stroke"  transform=" translate(-391.58, -278.75)" d="M 455.077 243.89 C 441.847 223.35799999999998 423.221 206.96699999999998 401.213 196.49099999999999 C 398.351 195.128 394.93800000000005 195.713 392.69300000000004 197.952 C 378.38100000000003 212.223 361.903 219.767 345.03900000000004 219.767 C 335.89700000000005 219.767 326.855 217.56199999999998 318.16600000000005 213.214 C 314.46000000000004 211.361 309.95700000000005 212.861 308.10300000000007 216.565 C 306.2490000000001 220.27 307.7490000000001 224.775 311.45400000000006 226.628 C 322.24700000000007 232.029 333.5470000000001 234.767 345.0400000000001 234.767 C 364.37500000000006 234.767 383.0440000000001 227.03 399.3280000000001 212.32999999999998 C 416.8320000000001 221.628 431.6760000000001 235.26399999999998 442.4690000000001 252.015 C 453.9140000000001 269.77799999999996 460.22500000000014 290.258 460.80700000000013 311.431 C 442.28300000000013 327.589 420.25400000000013 339.88 396.89700000000016 347.065 C 392.93800000000016 348.283 390.71500000000015 352.48 391.93300000000016 356.439 C 392.9250000000002 359.66400000000004 395.89300000000014 361.73600000000005 399.09900000000016 361.73600000000005 C 399.8290000000002 361.73600000000005 400.57300000000015 361.629 401.3070000000002 361.403 C 427.8160000000002 353.249 452.7420000000002 339.041 473.3890000000002 320.315 C 474.95700000000016 318.893 475.85100000000017 316.876 475.85100000000017 314.759 L 475.85100000000017 314.654 C 475.85 289.45 468.666 264.98 455.077 243.89 z" stroke-linecap="round" />
</g>
		<g transform="matrix(1.68 0 0 1.68 -198.11 -190.73)"  >
<path style="stroke: none; stroke-width: 1; stroke-dasharray: none; stroke-linecap: butt; stroke-dashoffset: 0; stroke-linejoin: miter; stroke-miterlimit: 4; fill: rgb(255,255,255); fill-rule: nonzero; opacity: 1;" vector-effect="non-scaling-stroke"  transform=" translate(-120.09, -124.48)" d="M 130.493 210.473 C 138.423 210.473 146.334 208.53900000000002 154.009 204.72500000000002 C 157.718 202.88200000000003 159.231 198.38000000000002 157.38799999999998 194.67100000000002 C 155.545 190.961 151.04299999999998 189.449 147.33399999999997 191.29200000000003 C 141.75199999999998 194.06600000000003 136.08599999999998 195.47200000000004 130.49299999999997 195.47200000000004 C 115.95199999999997 195.47200000000004 100.65699999999997 185.55800000000005 88.52899999999997 168.27200000000005 C 77.07999999999997 151.95400000000004 69.96699999999997 131.16000000000005 69.96699999999997 114.00600000000006 C 69.96699999999997 80.63100000000006 97.11899999999997 53.479000000000056 130.49299999999997 53.479000000000056 C 146.24499999999998 53.479000000000056 161.16299999999995 59.501000000000055 172.49899999999997 70.43700000000005 C 175.47899999999996 73.31200000000005 180.22799999999998 73.22900000000006 183.10299999999995 70.24700000000006 C 185.97899999999996 67.26600000000006 185.89399999999995 62.51800000000006 182.91299999999995 59.64300000000006 C 168.76699999999994 45.99600000000006 150.14999999999995 38.48000000000006 130.49299999999994 38.48000000000006 C 88.84699999999994 38.48000000000006 54.96699999999994 72.36100000000006 54.96699999999994 114.00700000000006 C 54.96699999999994 134.38700000000006 62.92399999999994 157.89400000000006 76.24999999999994 176.88800000000006 C 91.445 198.545 110.709 210.473 130.493 210.473 z" stroke-linecap="round" />
</g>
		<g transform="matrix(1.68 0 0 1.68 -258.42 62.58)"  >
<path style="stroke: none; stroke-width: 1; stroke-dasharray: none; stroke-linecap: butt; stroke-dashoffset: 0; stroke-linejoin: miter; stroke-miterlimit: 4; fill: rgb(255,255,255); fill-rule: nonzero; opacity: 1;" vector-effect="non-scaling-stroke"  transform=" translate(-84.22, -275.15)" d="M 61.034 340.143 C 44.281 332.921 28.824999999999996 323.171 15.045000000000002 311.13899999999995 C 15.627000000000002 290.02699999999993 21.92 269.6089999999999 33.336 251.89599999999996 C 44.096999999999994 235.19799999999995 58.897 221.60199999999995 76.346 212.32999999999996 C 92.58500000000001 226.99199999999996 111.202 234.70599999999996 130.485 234.70599999999996 C 142.072 234.70599999999996 153.454 231.92099999999996 164.31400000000002 226.42899999999997 C 168.01000000000002 224.55899999999997 169.491 220.04799999999997 167.622 216.35099999999997 C 165.75300000000001 212.65399999999997 161.241 211.17399999999998 157.544 213.04299999999998 C 148.80200000000002 217.46399999999997 139.698 219.706 130.485 219.706 C 113.674 219.706 97.24700000000001 212.184 82.98100000000002 197.952 C 80.73500000000003 195.712 77.32300000000002 195.127 74.46000000000002 196.49 C 52.50600000000002 206.941 33.92600000000002 223.29000000000002 20.727000000000025 243.77 C 7.167 264.811 0 289.221 0 314.362 L 0 314.46500000000003 C 0 316.581 0.894 318.59900000000005 2.461 320.021 C 18.09 334.195 35.799 345.6 55.095 353.918 C 56.063 354.335 57.07 354.533 58.061 354.533 C 60.965 354.533 63.729 352.836 64.952 350 C 66.591 346.196 64.837 341.783 61.034 340.143 z" stroke-linecap="round" />
</g>
		<g transform="matrix(1.68 0 0 1.68 -270.93 195)"  >
<path style="stroke: none; stroke-width: 1; stroke-dasharray: none; stroke-linecap: butt; stroke-dashoffset: 0; stroke-linejoin: miter; stroke-miterlimit: 4; fill: rgb(255,255,255); fill-rule: nonzero; opacity: 1;" vector-effect="non-scaling-stroke"  transform=" translate(-76.77, -353.91)" d="M 69.854 351.003 C 67.18299999999999 357.44599999999997 74.386 363.835 80.471 360.39 C 83.709 358.556 85.154 354.453 83.69800000000001 351.005 C 81.291 344.86 72.32 345.053 69.854 351.003 z" stroke-linecap="round" />
</g>
		<g transform="matrix(1.68 0 0 1.68 -259.28 190.1)"  >
<path style="stroke: none; stroke-width: 1; stroke-dasharray: none; stroke-linecap: butt; stroke-dashoffset: 0; stroke-linejoin: miter; stroke-miterlimit: 4; fill: rgb(255,255,255); fill-rule: nonzero; opacity: 1;" vector-effect="non-scaling-stroke"  transform=" translate(-83.7, -351)" d="M 83.698 351.005 C 83.888 351.455 83.518 350.545 83.698 351.005 L 83.698 351.005 z" stroke-linecap="round" />
</g>
		<g transform="matrix(1.68 0 0 1.68 198.1 -190.73)"  >
<path style="stroke: none; stroke-width: 1; stroke-dasharray: none; stroke-linecap: butt; stroke-dashoffset: 0; stroke-linejoin: miter; stroke-miterlimit: 4; fill: rgb(255,255,255); fill-rule: nonzero; opacity: 1;" vector-effect="non-scaling-stroke"  transform=" translate(-355.76, -124.48)" d="M 303.345 70.438 C 314.68100000000004 59.502 329.59900000000005 53.480000000000004 345.351 53.480000000000004 C 378.725 53.480000000000004 405.877 80.632 405.877 114.007 C 405.877 131.161 398.765 151.954 387.314 168.273 C 375.18600000000004 185.559 359.89000000000004 195.47299999999998 345.35 195.47299999999998 C 339.757 195.47299999999998 334.091 194.06699999999998 328.509 191.29299999999998 C 324.798 189.44899999999998 320.297 190.962 318.454 194.67199999999997 C 316.611 198.38099999999997 318.124 202.88199999999998 321.833 204.72599999999997 C 329.50800000000004 208.53999999999996 337.42 210.47399999999996 345.35 210.47399999999996 C 365.13300000000004 210.47399999999996 384.398 198.54699999999997 399.593 176.88899999999995 C 412.92 157.89499999999995 420.87600000000003 134.38799999999995 420.87600000000003 114.00799999999995 C 420.87600000000003 72.36199999999995 386.995 38.48099999999995 345.35 38.48099999999995 C 325.69300000000004 38.48099999999995 307.077 45.99699999999995 292.93 59.64399999999995 C 289.949 62.51899999999995 289.86400000000003 67.26799999999994 292.74 70.24799999999995 C 295.614 73.229 300.363 73.314 303.345 70.438 z" stroke-linecap="round" />
</g>
</g>
</g>
</svg>