<?xml version="1.0" standalone="no"?>
<!DOCTYPE svg PUBLIC "-//W3C//DTD SVG 20010904//EN"
 "http://www.w3.org/TR/2001/REC-SVG-20010904/DTD/svg10.dtd">
<svg version="1.0" xmlns="http://www.w3.org/2000/svg"
 width="512.000000pt" height="512.000000pt" viewBox="0 0 512.000000 512.000000"
 preserveAspectRatio="xMidYMid meet">

<g transform="translate(0.000000,512.000000) scale(0.100000,-0.100000)"
fill="#000000" stroke="none">
<path d="M2370 3999 c-527 -19 -1044 -136 -1466 -334 -113 -52 -280 -150 -311
-181 -31 -31 -30 -78 3 -111 34 -34 61 -28 162 36 737 462 2038 576 3007 264
568 -183 967 -471 1131 -817 93 -195 85 -426 -20 -633 l-25 -51 -72 70 c-205
198 -488 365 -819 484 -113 41 -143 42 -173 10 l-23 -24 -92 26 c-71 20 -92
30 -92 43 0 10 -10 30 -23 44 -19 22 -41 31 -139 50 -764 156 -1650 90 -2318
-172 -303 -119 -561 -277 -747 -456 l-81 -79 -25 44 c-14 23 -38 79 -54 123
-25 73 -28 92 -28 225 0 133 3 152 28 225 36 102 99 210 181 309 74 88 82 106
65 138 -18 33 -40 47 -73 48 -24 0 -41 -12 -83 -57 -116 -126 -212 -295 -255
-450 -17 -63 -22 -105 -21 -218 0 -123 3 -151 27 -229 103 -339 379 -622 825
-845 481 -241 1047 -362 1701 -362 654 0 1220 121 1701 362 446 223 722 506
825 845 24 79 27 105 27 234 0 129 -3 155 -27 234 -103 339 -379 622 -825 845
-524 263 -1167 385 -1891 360z"/>
</g>
</svg>
